<mxfile host="app.diagrams.net" modified="2021-10-09T13:57:07.667Z" agent="5.0 (Windows NT 10.0; Win64; x64) AppleWebKit/537.36 (KHTML, like Gecko) Chrome/94.0.4606.61 Safari/537.36 Edg/94.0.992.31" etag="awRtN_J4y3DrSR5lOxtQ" version="15.5.0" type="github">
  <diagram id="UARD5lfIkczkwRzNJLXB" name="Page-1">
    <mxGraphModel dx="864" dy="1756" grid="1" gridSize="10" guides="1" tooltips="1" connect="1" arrows="1" fold="1" page="1" pageScale="1" pageWidth="827" pageHeight="1169" math="0" shadow="0">
      <root>
        <mxCell id="0" />
        <mxCell id="1" parent="0" />
        <mxCell id="zSYbzivvnAXnJtvJsFFF-6" value="&lt;h1&gt;System Context Diagram: Do Me Application&lt;/h1&gt;" style="text;html=1;strokeColor=none;fillColor=none;spacing=5;spacingTop=-20;whiteSpace=wrap;overflow=hidden;rounded=0;dashed=1;" parent="1" vertex="1">
          <mxGeometry x="20" y="200" width="560" height="50" as="geometry" />
        </mxCell>
        <mxCell id="zSYbzivvnAXnJtvJsFFF-15" value="&lt;span&gt;&lt;font style=&quot;font-size: 15px&quot;&gt;Trello&lt;/font&gt;&lt;br&gt;&lt;/span&gt;" style="rounded=0;whiteSpace=wrap;html=1;" parent="1" vertex="1">
          <mxGeometry x="240" y="140" width="360" height="50" as="geometry" />
        </mxCell>
        <mxCell id="IunExKe6hsJeGXYzjpGR-2" value="" style="edgeStyle=orthogonalEdgeStyle;rounded=0;orthogonalLoop=1;jettySize=auto;html=1;fontSize=15;" edge="1" parent="1" source="Q_ctwqEmxqImakzwVcya-3" target="zSYbzivvnAXnJtvJsFFF-15">
          <mxGeometry relative="1" as="geometry" />
        </mxCell>
        <mxCell id="Q_ctwqEmxqImakzwVcya-3" value="&lt;font style=&quot;font-size: 15px&quot;&gt;Do Me Application&lt;/font&gt;" style="rounded=0;whiteSpace=wrap;html=1;" parent="1" vertex="1">
          <mxGeometry x="240" y="40" width="360" height="50" as="geometry" />
        </mxCell>
        <mxCell id="IunExKe6hsJeGXYzjpGR-1" value="" style="edgeStyle=orthogonalEdgeStyle;rounded=0;orthogonalLoop=1;jettySize=auto;html=1;fontSize=15;" edge="1" parent="1" source="Q_ctwqEmxqImakzwVcya-5" target="Q_ctwqEmxqImakzwVcya-3">
          <mxGeometry relative="1" as="geometry" />
        </mxCell>
        <mxCell id="Q_ctwqEmxqImakzwVcya-5" value="User" style="shape=umlActor;verticalLabelPosition=bottom;verticalAlign=top;html=1;outlineConnect=0;fontSize=15;" parent="1" vertex="1">
          <mxGeometry x="405" y="-110" width="30" height="60" as="geometry" />
        </mxCell>
      </root>
    </mxGraphModel>
  </diagram>
</mxfile>
